<svg width="171" height="27" viewBox="0 0 171 27" fill="none" xmlns="http://www.w3.org/2000/svg">
<path d="M0 25.973V0H5.64353C7.56746 0 9.08522 0.299278 10.1968 0.897834C11.3298 1.47501 12.1314 2.35147 12.6017 3.5272C13.0934 4.70294 13.3392 6.16726 13.3392 7.92018V17.4757C13.3392 19.3141 13.0934 20.8639 12.6017 22.1252C12.1314 23.3864 11.3512 24.3484 10.261 25.0111C9.19211 25.6524 7.74916 25.973 5.93212 25.973H0ZM3.6234 23.3757H5.67559C7.00097 23.3757 7.94155 23.1192 8.49736 22.6062C9.05316 22.0931 9.3845 21.3449 9.49139 20.3616C9.61965 19.3782 9.68378 18.1918 9.68378 16.8023V8.36909C9.68378 7.02234 9.59827 5.93212 9.42725 5.09841C9.25624 4.26471 8.88214 3.65547 8.30496 3.27068C7.72778 2.8859 6.81926 2.6935 5.5794 2.6935H3.6234V23.3757Z" fill="url(#paint0_linear_291_3213)"/>
<path d="M19.2824 26.2296C18.5556 26.2296 17.9891 26.0372 17.5829 25.6524C17.1767 25.2676 16.8882 24.7866 16.7171 24.2094C16.5675 23.6323 16.4927 23.0444 16.4927 22.4458V7.4392H19.9237V21.4197C19.9237 22.0824 20.0199 22.6062 20.2123 22.991C20.4047 23.3544 20.8001 23.5361 21.3987 23.5361C21.7835 23.5361 22.179 23.4292 22.5851 23.2154C23.0127 22.9803 23.4188 22.7024 23.8036 22.3817V7.4392H27.2346V25.973H23.8036V24.1453C23.2051 24.7225 22.521 25.2142 21.7514 25.6203C21.0032 26.0265 20.1802 26.2296 19.2824 26.2296Z" fill="url(#paint1_linear_291_3213)"/>
<path d="M30.7435 25.973V7.4392H33.918V9.2028C34.538 8.49736 35.222 7.97362 35.9702 7.63159C36.7184 7.28956 37.488 7.11854 38.2789 7.11854C38.963 7.11854 39.5722 7.28956 40.1067 7.63159C40.6625 7.97362 41.0579 8.58286 41.2931 9.45932C41.9558 8.64699 42.6719 8.05913 43.4415 7.69572C44.2324 7.31093 45.0554 7.11854 45.9105 7.11854C46.5091 7.11854 47.0542 7.26818 47.5459 7.56746C48.0375 7.84536 48.433 8.30496 48.7323 8.94627C49.0316 9.56621 49.1812 10.3892 49.1812 11.4153V25.973H46.0388V11.6398C46.0388 10.7419 45.8891 10.1434 45.5899 9.84411C45.312 9.52345 44.9272 9.36312 44.4355 9.36312C43.9652 9.36312 43.4735 9.50208 42.9605 9.77998C42.4474 10.0365 41.9772 10.3999 41.5496 10.8702C41.5496 10.9557 41.5496 11.0412 41.5496 11.1267C41.5496 11.2122 41.5496 11.3084 41.5496 11.4153V25.973H38.4072V11.6398C38.4072 10.7419 38.2576 10.1434 37.9583 9.84411C37.6804 9.52345 37.2956 9.36312 36.8039 9.36312C36.3336 9.36312 35.842 9.50208 35.3289 9.77998C34.8372 10.0365 34.3669 10.3999 33.918 10.8702V25.973H30.7435Z" fill="url(#paint2_linear_291_3213)"/>
<path d="M59.1756 26.2296C58.5129 26.2296 57.9144 26.0692 57.3799 25.7486C56.8669 25.4066 56.418 25.0325 56.0332 24.6263V25.973H52.6022V0H56.0332V8.91421C56.4394 8.44391 56.9203 8.03775 57.4761 7.69572C58.0533 7.35369 58.7374 7.18267 59.5283 7.18267C60.4903 7.18267 61.2492 7.43919 61.805 7.95224C62.3822 8.44391 62.8097 9.07453 63.0876 9.84411C63.3655 10.5923 63.5472 11.3619 63.6327 12.1528C63.7182 12.9224 63.761 13.5851 63.761 14.1409V18.6301C63.761 19.934 63.6327 21.1739 63.3762 22.3496C63.1197 23.504 62.6601 24.4446 61.9974 25.1714C61.3347 25.8769 60.3941 26.2296 59.1756 26.2296ZM58.4702 23.5361C59.0687 23.5361 59.4963 23.3223 59.7528 22.8948C60.0093 22.4458 60.1696 21.8473 60.2338 21.0991C60.2979 20.3509 60.33 19.5279 60.33 18.6301V14.1409C60.33 13.3713 60.2872 12.6659 60.2017 12.0246C60.1162 11.3619 59.9345 10.8381 59.6566 10.4534C59.3787 10.0686 58.9405 9.87617 58.3419 9.87617C57.893 9.87617 57.4654 9.97237 57.0593 10.1648C56.6745 10.3572 56.3325 10.5709 56.0332 10.8061V22.7024C56.3325 22.9375 56.6852 23.1406 57.0914 23.3116C57.5189 23.4613 57.9785 23.5361 58.4702 23.5361Z" fill="url(#paint3_linear_291_3213)"/>
<path d="M69.6695 26.2296C68.9427 26.2296 68.3014 26.0265 67.7456 25.6203C67.1898 25.1928 66.7516 24.6584 66.4309 24.0171C66.1103 23.3544 65.9499 22.6596 65.9499 21.9328C65.9499 20.7784 66.1423 19.8058 66.5271 19.0148C66.9119 18.2239 67.4356 17.5612 68.0983 17.0268C68.7824 16.471 69.5627 15.99 70.4391 15.5838C71.3369 15.1777 72.2775 14.7822 73.2609 14.3974V13.0827C73.2609 12.3345 73.2181 11.7146 73.1326 11.2229C73.0471 10.7313 72.8654 10.3678 72.5875 10.1327C72.331 9.87617 71.9355 9.74791 71.4011 9.74791C70.9308 9.74791 70.546 9.85479 70.2467 10.0686C69.9688 10.2823 69.7657 10.5923 69.6375 10.9985C69.5092 11.3833 69.4451 11.8429 69.4451 12.3773V13.3072L66.0461 13.1789C66.0889 11.1267 66.5592 9.61965 67.457 8.65768C68.3549 7.67434 69.7444 7.18267 71.6255 7.18267C73.464 7.18267 74.768 7.68503 75.5375 8.68975C76.3071 9.69447 76.6919 11.1481 76.6919 13.0507V21.5159C76.6919 22.0931 76.7026 22.6489 76.724 23.1834C76.7667 23.7178 76.8095 24.2201 76.8522 24.6904C76.9163 25.1393 76.9698 25.5669 77.0125 25.973H73.8701C73.806 25.631 73.7205 25.2035 73.6136 24.6904C73.5281 24.156 73.464 23.675 73.4212 23.2475C73.2074 23.9743 72.7906 24.6584 72.1706 25.2997C71.5721 25.9196 70.7384 26.2296 69.6695 26.2296ZM71.0163 23.2795C71.3583 23.2795 71.679 23.1834 71.9783 22.991C72.2775 22.7986 72.5447 22.5848 72.7799 22.3496C73.015 22.0931 73.1754 21.89 73.2609 21.7404V16.4817C72.7265 16.7809 72.2241 17.0802 71.7538 17.3795C71.2835 17.6788 70.8667 17.9994 70.5032 18.3415C70.1612 18.6621 69.8833 19.0362 69.6695 19.4638C69.4771 19.8699 69.381 20.3402 69.381 20.8746C69.381 21.6228 69.5199 22.2107 69.7978 22.6382C70.0757 23.0658 70.4819 23.2795 71.0163 23.2795Z" fill="url(#paint4_linear_291_3213)"/>
<path d="M80.0966 25.973V7.4392H83.5276V10.0686C84.2117 8.93558 84.8957 8.1767 85.5798 7.79191C86.2638 7.40713 86.9479 7.21474 87.632 7.21474C87.7175 7.21474 87.7923 7.21474 87.8564 7.21474C87.9419 7.21474 88.0488 7.22542 88.1771 7.2468V11.0305C87.9206 10.9236 87.6213 10.8381 87.2793 10.774C86.9586 10.6885 86.6273 10.6457 86.2852 10.6457C85.7508 10.6457 85.2591 10.774 84.8102 11.0305C84.3827 11.2657 83.9551 11.736 83.5276 12.4414V25.973H80.0966Z" fill="url(#paint5_linear_291_3213)"/>
<path d="M95.2408 26.2296C94.2788 26.2296 93.4985 26.0479 92.9 25.6845C92.3228 25.321 91.8953 24.808 91.6174 24.1453C91.3608 23.4826 91.2326 22.7024 91.2326 21.8045V9.71584H89.2766V7.4392H91.2326V2.02013H94.6636V7.4392H97.6457V9.71584H94.6636V21.5801C94.6636 22.3069 94.7812 22.8306 95.0163 23.1513C95.2515 23.4506 95.7004 23.6002 96.3631 23.6002C96.5341 23.6002 96.7265 23.5895 96.9402 23.5681C97.1754 23.5468 97.3998 23.5254 97.6136 23.504V26.0372C97.1861 26.1013 96.7906 26.1441 96.4272 26.1654C96.0638 26.2082 95.6683 26.2296 95.2408 26.2296Z" fill="url(#paint6_linear_291_3213)"/>
<path d="M105.265 26.2296C103.897 26.2296 102.817 25.9517 102.026 25.3959C101.235 24.8401 100.669 24.0491 100.327 23.023C100.006 21.9969 99.8459 20.7891 99.8459 19.3996V14.0126C99.8459 12.6231 100.006 11.4153 100.327 10.3892C100.669 9.36312 101.235 8.57217 102.026 8.01637C102.817 7.46057 103.897 7.18267 105.265 7.18267C106.633 7.18267 107.702 7.46057 108.472 8.01637C109.262 8.57217 109.818 9.36312 110.139 10.3892C110.481 11.4153 110.652 12.6231 110.652 14.0126V19.3996C110.652 20.7891 110.481 21.9969 110.139 23.023C109.818 24.0491 109.262 24.8401 108.472 25.3959C107.702 25.9517 106.633 26.2296 105.265 26.2296ZM105.265 23.6964C105.928 23.6964 106.387 23.504 106.644 23.1192C106.922 22.7344 107.082 22.2321 107.125 21.6121C107.189 20.9708 107.221 20.3081 107.221 19.6241V13.8202C107.221 13.1148 107.189 12.4521 107.125 11.8322C107.082 11.2122 106.922 10.7099 106.644 10.3251C106.387 9.91893 105.928 9.71584 105.265 9.71584C104.602 9.71584 104.132 9.91893 103.854 10.3251C103.576 10.7099 103.405 11.2122 103.341 11.8322C103.298 12.4521 103.277 13.1148 103.277 13.8202V19.6241C103.277 20.3081 103.298 20.9708 103.341 21.6121C103.405 22.2321 103.576 22.7344 103.854 23.1192C104.132 23.504 104.602 23.6964 105.265 23.6964Z" fill="url(#paint7_linear_291_3213)"/>
<path d="M113.788 25.973V7.4392H117.219V9.26693C117.839 8.68975 118.523 8.19808 119.271 7.79191C120.02 7.38575 120.843 7.18267 121.74 7.18267C122.489 7.18267 123.055 7.37506 123.44 7.75985C123.846 8.14464 124.124 8.62562 124.274 9.2028C124.445 9.77998 124.53 10.3678 124.53 10.9664V25.973H121.099V11.9604C121.099 11.2977 121.003 10.7847 120.81 10.4213C120.618 10.0579 120.223 9.87617 119.624 9.87617C119.239 9.87617 118.833 9.99375 118.406 10.2289C117.999 10.4427 117.604 10.7099 117.219 11.0305V25.973H113.788Z" fill="url(#paint8_linear_291_3213)"/>
<path d="M135.495 25.973V0H145.532V2.59731H139.119V11.255H144.089V13.8202H139.119V25.973H135.495Z" fill="url(#paint9_linear_291_3213)"/>
<path d="M149.927 26.2296C149.2 26.2296 148.559 26.0265 148.003 25.6203C147.447 25.1928 147.009 24.6584 146.689 24.0171C146.368 23.3544 146.208 22.6596 146.208 21.9328C146.208 20.7784 146.4 19.8058 146.785 19.0148C147.17 18.2239 147.693 17.5612 148.356 17.0268C149.04 16.471 149.82 15.99 150.697 15.5838C151.595 15.1777 152.535 14.7822 153.519 14.3974V13.0827C153.519 12.3345 153.476 11.7146 153.39 11.2229C153.305 10.7313 153.123 10.3678 152.845 10.1327C152.589 9.87617 152.193 9.74791 151.659 9.74791C151.188 9.74791 150.804 9.85479 150.504 10.0686C150.226 10.2823 150.023 10.5923 149.895 10.9985C149.767 11.3833 149.703 11.8429 149.703 12.3773V13.3072L146.304 13.1789C146.347 11.1267 146.817 9.61965 147.715 8.65768C148.613 7.67434 150.002 7.18267 151.883 7.18267C153.722 7.18267 155.026 7.68503 155.795 8.68975C156.565 9.69447 156.95 11.1481 156.95 13.0507V21.5159C156.95 22.0931 156.96 22.6489 156.982 23.1834C157.024 23.7178 157.067 24.2201 157.11 24.6904C157.174 25.1393 157.227 25.5669 157.27 25.973H154.128C154.064 25.631 153.978 25.2035 153.871 24.6904C153.786 24.156 153.722 23.675 153.679 23.2475C153.465 23.9743 153.048 24.6584 152.428 25.2997C151.83 25.9196 150.996 26.2296 149.927 26.2296ZM151.274 23.2795C151.616 23.2795 151.937 23.1834 152.236 22.991C152.535 22.7986 152.802 22.5848 153.038 22.3496C153.273 22.0931 153.433 21.89 153.519 21.7404V16.4817C152.984 16.7809 152.482 17.0802 152.011 17.3795C151.541 17.6788 151.124 17.9994 150.761 18.3415C150.419 18.6621 150.141 19.0362 149.927 19.4638C149.735 19.8699 149.639 20.3402 149.639 20.8746C149.639 21.6228 149.778 22.2107 150.055 22.6382C150.333 23.0658 150.74 23.2795 151.274 23.2795Z" fill="url(#paint10_linear_291_3213)"/>
<path d="M160.258 25.973V7.4392H163.689V9.26693C164.309 8.68975 164.993 8.19808 165.741 7.79191C166.489 7.38575 167.312 7.18267 168.21 7.18267C168.958 7.18267 169.525 7.37506 169.91 7.75985C170.316 8.14464 170.594 8.62562 170.743 9.2028C170.914 9.77998 171 10.3678 171 10.9664V25.973H167.569V11.9604C167.569 11.2977 167.473 10.7847 167.28 10.4213C167.088 10.0579 166.693 9.87617 166.094 9.87617C165.709 9.87617 165.303 9.99375 164.875 10.2289C164.469 10.4427 164.074 10.7099 163.689 11.0305V25.973H160.258Z" fill="url(#paint11_linear_291_3213)"/>
<defs>
<linearGradient id="paint0_linear_291_3213" x1="-28.956" y1="-3.95705" x2="-26.976" y2="55.6258" gradientUnits="userSpaceOnUse">
<stop offset="0.258006" stop-color="#000002"/>
<stop offset="1" stop-color="#F2CE17" stop-opacity="0.1"/>
</linearGradient>
<linearGradient id="paint1_linear_291_3213" x1="-28.956" y1="-3.95705" x2="-26.976" y2="55.6258" gradientUnits="userSpaceOnUse">
<stop offset="0.258006" stop-color="#000002"/>
<stop offset="1" stop-color="#F2CE17" stop-opacity="0.1"/>
</linearGradient>
<linearGradient id="paint2_linear_291_3213" x1="-28.956" y1="-3.95705" x2="-26.976" y2="55.6258" gradientUnits="userSpaceOnUse">
<stop offset="0.258006" stop-color="#000002"/>
<stop offset="1" stop-color="#F2CE17" stop-opacity="0.1"/>
</linearGradient>
<linearGradient id="paint3_linear_291_3213" x1="-28.956" y1="-3.95705" x2="-26.976" y2="55.6258" gradientUnits="userSpaceOnUse">
<stop offset="0.258006" stop-color="#000002"/>
<stop offset="1" stop-color="#F2CE17" stop-opacity="0.1"/>
</linearGradient>
<linearGradient id="paint4_linear_291_3213" x1="-28.956" y1="-3.95705" x2="-26.976" y2="55.6258" gradientUnits="userSpaceOnUse">
<stop offset="0.258006" stop-color="#000002"/>
<stop offset="1" stop-color="#F2CE17" stop-opacity="0.1"/>
</linearGradient>
<linearGradient id="paint5_linear_291_3213" x1="-28.956" y1="-3.95705" x2="-26.976" y2="55.6258" gradientUnits="userSpaceOnUse">
<stop offset="0.258006" stop-color="#000002"/>
<stop offset="1" stop-color="#F2CE17" stop-opacity="0.1"/>
</linearGradient>
<linearGradient id="paint6_linear_291_3213" x1="-28.956" y1="-3.95705" x2="-26.976" y2="55.6258" gradientUnits="userSpaceOnUse">
<stop offset="0.258006" stop-color="#000002"/>
<stop offset="1" stop-color="#F2CE17" stop-opacity="0.1"/>
</linearGradient>
<linearGradient id="paint7_linear_291_3213" x1="-28.956" y1="-3.95705" x2="-26.976" y2="55.6258" gradientUnits="userSpaceOnUse">
<stop offset="0.258006" stop-color="#000002"/>
<stop offset="1" stop-color="#F2CE17" stop-opacity="0.1"/>
</linearGradient>
<linearGradient id="paint8_linear_291_3213" x1="-28.956" y1="-3.95705" x2="-26.976" y2="55.6258" gradientUnits="userSpaceOnUse">
<stop offset="0.258006" stop-color="#000002"/>
<stop offset="1" stop-color="#F2CE17" stop-opacity="0.1"/>
</linearGradient>
<linearGradient id="paint9_linear_291_3213" x1="-28.956" y1="-3.95705" x2="-26.976" y2="55.6258" gradientUnits="userSpaceOnUse">
<stop offset="0.258006" stop-color="#000002"/>
<stop offset="1" stop-color="#F2CE17" stop-opacity="0.1"/>
</linearGradient>
<linearGradient id="paint10_linear_291_3213" x1="-28.956" y1="-3.95705" x2="-26.976" y2="55.6258" gradientUnits="userSpaceOnUse">
<stop offset="0.258006" stop-color="#000002"/>
<stop offset="1" stop-color="#F2CE17" stop-opacity="0.1"/>
</linearGradient>
<linearGradient id="paint11_linear_291_3213" x1="-28.956" y1="-3.95705" x2="-26.976" y2="55.6258" gradientUnits="userSpaceOnUse">
<stop offset="0.258006" stop-color="#000002"/>
<stop offset="1" stop-color="#F2CE17" stop-opacity="0.1"/>
</linearGradient>
</defs>
</svg>
