<svg width="24" height="24" viewBox="0 0 24 24" fill="none" xmlns="http://www.w3.org/2000/svg">
<path d="M4.33459 14.7127H19.0526V21.84H4.33459V14.7127ZM18.2016 6.04992C17.739 6.5438 17.3223 7.07863 16.9564 7.64784C16.8835 7.76042 16.7988 7.865 16.704 7.95984C16.6736 7.99016 16.6422 8.01946 16.6099 8.04768C16.3282 8.2935 15.9796 8.44961 15.6086 8.496C15.18 8.54904 14.5286 8.66568 13.8535 8.92008L13.8487 8.92176L13.8396 8.92512L13.8304 8.92872C13.2813 9.13752 12.7984 9.40656 12.3976 9.72864C12.252 9.84823 12.0733 9.92057 11.8855 9.936C11.5668 9.95856 11.3275 9.912 11.2286 9.81024C11.2099 9.79056 11.1528 9.73104 11.171 9.56424C11.1984 9.3192 11.3438 9.09216 11.5704 8.94144L13.3896 7.72968L13.402 7.72152L13.966 7.34592C14.0913 7.26452 14.1965 7.1559 14.274 7.02816C14.3884 6.83616 14.4146 6.64032 14.3496 6.46488C14.2732 6.25848 14.0784 6.1008 13.7707 5.9964C13.5187 5.91101 13.2434 5.92667 13.0027 6.04008L12.8479 6.11208C12.6216 6.2172 12.4405 6.39992 12.3374 6.62712L12.0396 7.28472H10.8444L11.2891 5.2704C11.2905 5.26399 11.2917 5.2575 11.2924 5.25096C11.2924 5.24808 11.3484 4.93896 11.8365 4.7868L12.3165 4.64136H12.3208L14.6217 3.89592C14.9668 3.77643 15.3053 3.63855 15.6357 3.48288C15.6482 3.4968 15.6612 3.51048 15.6744 3.52368L18.2016 6.04992Z" fill="#143F82"/>
<path d="M16.86 2.33715C16.6258 2.10293 16.2461 2.10289 16.0119 2.33707C15.7777 2.57124 15.7778 2.95095 16.012 3.18517L18.6394 5.81255C18.8736 6.04678 19.2533 6.04681 19.4875 5.81264C19.7216 5.57847 19.7216 5.19876 19.4874 4.96454L16.86 2.33715Z" fill="#143F82"/>
<path d="M16.2508 10.7539H14.1648V12.1939H14.6592C14.6986 12.1939 14.7376 12.2017 14.774 12.2167C14.8104 12.2318 14.8434 12.2539 14.8713 12.2818C14.8991 12.3096 14.9212 12.3427 14.9363 12.3791C14.9514 12.4155 14.9592 12.4545 14.9592 12.4939C14.9592 12.5333 14.9514 12.5723 14.9363 12.6087C14.9212 12.6451 14.8991 12.6782 14.8713 12.706C14.8434 12.7339 14.8104 12.756 14.774 12.7711C14.7376 12.7861 14.6986 12.7939 14.6592 12.7939H8.49115C8.41159 12.7939 8.33528 12.7623 8.27902 12.706C8.22276 12.6498 8.19115 12.5735 8.19115 12.4939C8.19115 12.4143 8.22276 12.338 8.27902 12.2818C8.33528 12.2255 8.41159 12.1939 8.49115 12.1939H8.98555V10.7539H7.13755L4.33459 14.232H19.0526L16.2508 10.7539Z" fill="#143F82"/>
<path d="M13.6848 12.1932V9.50905C13.3319 9.66489 13.0003 9.8648 12.6977 10.104C12.476 10.2848 12.2045 10.3937 11.9193 10.416C11.8538 10.4208 11.7909 10.423 11.7302 10.423C11.3462 10.423 11.0611 10.3296 10.8828 10.1441C10.7769 10.0342 10.6584 9.83545 10.6941 9.51265C10.7371 9.12601 10.9593 8.77273 11.3042 8.54305L12.4716 7.76569H9.46533V12.1932H13.6848Z" fill="#143F82"/>
</svg>
